<svg width="120" height="143" viewBox="0 0 120 143" fill="none" xmlns="http://www.w3.org/2000/svg">
<path fill-rule="evenodd" clip-rule="evenodd" d="M61.0771 18.917C75.2853 18.917 93.6255 27.8357 95.1895 36.9701C97.0325 47.7348 106.902 89.0402 104.673 102.286C102.445 115.532 90.4351 125.068 71.2178 125.068C52.0005 125.068 37.6569 114.581 34.3635 110.98C31.0701 107.379 24.9668 94.5232 24.9668 94.5232C24.9668 94.5232 14.6774 93.1538 14.6286 84.7607C14.5798 76.3676 21.3184 73.314 21.3184 73.314C21.3184 73.314 18.9157 40.1913 24.9668 31.5677C31.0178 22.9441 46.8689 18.917 61.0771 18.917Z" fill="#BFB5FE"/>
<path fill-rule="evenodd" clip-rule="evenodd" d="M94.3203 35.4965C94.31 35.3039 94.5903 35.2814 94.6428 35.4517C97.7082 45.5854 99.5976 53.4827 101.587 63.8721L102.174 66.9283C103.744 75.0796 105.33 83.2427 106.669 91.4336L106.748 91.9226C107.419 96.1625 107.805 100.444 106.964 104.692C106.179 108.664 104.032 112.304 101.244 115.204C95.8567 120.808 88.3696 124.309 80.8379 125.874C77.0294 126.665 73.1008 126.97 69.2197 126.695C67.2852 126.559 65.3537 126.286 63.4594 125.884L63.2503 125.839C61.341 125.426 59.6463 124.934 58.6323 123.136C58.3773 122.683 58.4799 121.907 59.0154 121.674C60.0263 121.238 60.7695 121.056 61.8727 121.181C62.9262 121.301 63.9549 121.619 64.9959 121.817C66.9852 122.195 69.007 122.385 71.0314 122.431C75.0076 122.518 78.9937 122.02 82.7947 120.833C89.3255 118.792 95.9618 114.889 99.7778 109.049C104.267 102.18 102.479 93.8432 101.29 86.2571L101.254 86.0274C100.05 78.2735 98.8591 70.5195 97.7033 62.7606L97.2102 59.435C95.9143 50.6484 94.6906 44.3759 94.3203 35.4965ZM28.0125 13.9898C31.2721 11.8399 35.3226 11.3116 39.1511 11.3413L39.6306 11.3473C44.5329 11.4221 69.2098 12.0097 77.4718 12.1905L79.4373 12.232C82.0387 12.2811 87.2854 12.3324 89.9886 12.3818L90.1446 12.3847C91.4708 12.4098 92.7971 12.4198 94.1233 12.4623L94.3177 12.4693C95.3111 12.5118 96.1378 12.6605 96.9158 13.3613C97.3115 13.7164 97.4659 14.2581 97.4296 14.774L97.4238 14.8411L99.3931 15.0139C100.73 15.1322 101.437 16.3323 100.906 17.5468L100.879 17.6056C99.9361 19.6188 99.2155 25.4781 98.71 27.6441C98.4447 28.7834 98.2318 29.9403 98.1067 31.1046C98.0068 32.0213 97.9968 32.94 97.4864 33.7463C96.3976 35.4666 93.3351 35.4516 93.28 33.0152C93.2775 32.9375 93.28 32.8624 93.2875 32.7898C85.5804 32.4518 75.0583 32.4843 67.3612 32.9451C60.1721 33.3757 53.0155 34.3523 45.9715 35.8472C44.1874 36.2253 42.4083 36.6385 40.6416 37.0867C39.1928 37.4523 37.4137 37.6701 36.1175 38.4539C34.6662 39.3353 34.6937 40.9153 34.8513 42.4202C35.0205 44.0152 35.3027 43.1934 35.7025 44.647L35.7271 44.7389C36.14 46.3164 36.6505 47.8764 37.3261 49.3588C37.7114 50.2051 38.3323 51.0189 38.0968 51.993C37.9642 52.5414 37.531 53.1273 37.1334 53.5104C35.3215 55.2507 32.2589 54.1414 31.0278 56.5252C29.7394 59.0179 29.7074 62.3946 29.598 65.1527L29.5915 65.3143C29.5117 67.2148 29.5339 69.1203 29.659 71.0159C29.7717 72.7434 30.2318 74.4539 29.6415 76.114C29.2109 77.3209 27.8048 77.4336 27.0692 76.4521C26.9847 76.3394 26.9073 76.2239 26.8348 76.1077L26.7639 75.9913L26.7591 75.9938C26.8289 76.104 26.894 76.2169 26.9566 76.3319C27.0241 76.4596 26.8565 76.5998 26.7539 76.4896C25.0223 74.6041 22.4925 74.9797 20.5332 76.2993C18.5488 77.6415 17.7656 80.1905 17.663 82.4769C17.5479 85.013 17.7731 87.9857 18.8291 90.3292C19.2745 91.3208 19.9098 92.2323 20.9636 92.6104C21.4417 92.7806 21.8969 92.7581 22.3949 92.7982C22.9126 92.838 23.5359 93.0987 24.0386 93.0636C24.6922 93.0171 25.279 93.7637 25.0934 94.3893L25.0798 94.4308C25.0701 94.4608 25.0598 94.4909 25.0501 94.5184C25.0748 94.541 25.0999 94.5685 25.1174 94.6086C27.0191 98.4973 29.6265 101.958 32.5092 105.168C33.9532 106.773 35.5545 108.248 37.2285 109.613C38.0543 110.286 38.9251 110.96 39.8434 111.503C40.1487 111.681 40.4287 111.801 40.772 111.899C40.9319 111.944 41.1146 111.966 41.2697 112.019L41.4308 112.074C41.4419 112.078 41.4524 112.081 41.4624 112.084C41.9228 112.137 42.3107 112.442 42.4633 112.92C42.8612 114.167 42.138 115.269 40.9019 115.612C39.5626 115.987 38.3005 115.329 37.2389 114.573L37.1684 114.523C35.004 112.963 33.0096 111.213 31.283 109.169C27.8674 105.135 25.7277 100.465 24.7373 95.2997C24.4918 95.828 24.1615 96.2887 23.5885 96.6093C22.6977 97.1101 21.6342 97.1101 20.6583 96.9423C18.694 96.6093 17.0199 95.4098 15.9014 93.7872C14.7401 92.1046 14.3074 90.0613 14.0447 88.0706C13.7845 86.0772 13.6568 84.0767 13.9171 82.0785C14.2902 79.209 15.4935 76.3719 17.8332 74.7994C16.0816 70.9808 15.7738 66.699 15.8989 62.5173C16.0515 57.3691 16.9399 52.1633 17.623 47.0626L19.565 32.5619V32.5619L19.6445 31.9774C20.1131 28.5661 20.6836 25.1367 21.9595 21.9224C23.2181 18.7549 25.1299 15.8903 28.0125 13.9898ZM19.8404 82.5894C23.0484 81.0319 26.5141 82.4667 28.2407 85.489C29.7419 88.1167 25.2784 89.8535 24.5337 87.145L24.5122 87.0615C24.0218 85.0108 22.0247 83.2379 19.9405 82.9625C19.7679 82.9377 19.64 82.6873 19.8404 82.5894Z" fill="black"/>
<path fill-rule="evenodd" clip-rule="evenodd" d="M64.9034 99.3246C69.1038 96.5139 90.3631 97.0638 92.3252 99.2201C94.2873 101.376 98.8221 107.531 89.1086 110.553C79.3952 113.576 67.3713 112.517 64.2387 108.817L64.0541 108.595C61.0918 104.997 60.787 102.079 64.9034 99.3246Z" fill="white"/>
<path fill-rule="evenodd" clip-rule="evenodd" d="M83.2164 82.7959C85.1099 83.9452 87.9952 86.6253 85.9581 89.4747C83.5603 91.9871 80.108 89.1064 78.4068 87.8036C76.8293 86.794 75.0569 89.3908 76.5205 90.5697C88.8137 99.658 93.8025 83.0964 84.1741 81.4446C83.114 81.2625 82.7202 82.4403 83.2164 82.7959ZM66.1078 60.8767L66.5785 60.7944L66.8198 60.7536C68.2301 60.5208 69.9019 60.365 70.876 61.4704C71.4224 62.0904 71.6104 63.2428 70.876 63.8362C69.5841 64.8804 68.1557 64.4757 66.6075 64.5641C65.3317 64.6372 64.1055 64.8481 62.8765 65.1989C60.1803 65.9684 57.9834 67.3731 55.6807 68.9156C55.3786 69.1179 55.0701 68.732 55.2143 68.4498C56.5436 65.8499 59.1196 63.7143 61.6999 62.4124C63.0771 61.7176 64.5842 61.1411 66.1078 60.8767ZM78.58 96.7942C82.7004 97.0929 91.63 95.1288 95.3377 98.075C109.312 115.5 53.9116 119.979 59.8947 100.702C63.7054 94.4687 72.4707 96.974 78.58 96.7942ZM77.8733 107.313C76.8542 107.23 75.6175 108.036 75.3183 108.659C75.0192 109.282 75.1348 110.598 75.1438 110.827C76.9255 111.006 78.7226 111.033 80.5093 110.916C80.0451 109.383 80.0301 107.545 77.8733 107.313ZM86.0996 109.885C85.8132 107.982 84.4501 107.532 83.3468 107.817C82.2181 108.109 81.5556 109.407 81.6273 110.562C81.6321 110.641 81.5859 110.709 81.5556 110.773C83.0897 110.592 84.6096 110.294 86.0996 109.885ZM73.4629 107.658C72.8205 106.682 71.2853 106.211 70.3021 106.383C68.6965 106.72 68.5064 108.758 68.5064 109.173C69.9866 109.736 71.5581 110.11 73.0607 110.408C73.3623 110.468 73.6648 110.521 73.9677 110.571L73.9874 110.324C74.024 109.794 74.0511 108.551 73.4629 107.658ZM91.6256 107.497C89.9794 104.953 86.4407 106.774 86.7331 109.553C87.0475 109.454 87.3605 109.351 87.6719 109.242C88.9653 108.792 90.3841 108.257 91.6256 107.497ZM78.6646 98.7338C76.4499 98.5347 74.6332 98.6018 73.1888 98.8693L73.145 99.3511C72.9851 101.021 72.779 102.664 73.6575 103.336C74.3709 103.882 76.7388 103.83 78.3266 103.435C78.7188 103.336 79.2286 99.8714 78.6646 98.7338ZM82.0895 98.5347C81.7345 100.181 81.5675 102.18 82.2803 102.774C83.0328 103.401 85.4555 103.316 86.0891 102.898C86.6436 102.533 86.6295 100.851 86.4236 98.9639C85.1966 98.6752 83.0602 98.5347 82.0895 98.5347ZM72.2096 98.8858L71.4844 98.8923L71.0739 98.8978C70.036 98.9162 68.9162 98.9759 67.8577 99.2066C65.7547 103.745 73.4344 104.528 72.2483 99.0536L72.2096 98.8858ZM87.4003 98.9952L87.3869 99.2523C87.3238 100.527 87.3656 102.206 88.0728 102.659C89.1134 103.326 91.0676 103.197 92.1261 100.112C91.7758 99.1922 88.0605 99.0626 87.4003 98.9952ZM67.0196 71.9368C67.4643 71.9368 67.8896 72.0875 68.2769 72.3664C68.6581 72.6408 69.0031 73.0414 69.2905 73.541C69.8344 74.4865 70.1744 75.7919 70.1744 77.2353C70.1744 78.6787 69.8344 79.9841 69.2905 80.9295C69.0031 81.4291 68.6581 81.8297 68.2769 82.1042C67.8896 82.383 67.4643 82.5338 67.0196 82.5338C66.575 82.5338 66.1497 82.383 65.7624 82.1042C65.3812 81.8297 65.0362 81.4291 64.7487 80.9295C64.2049 79.9841 63.8648 78.6787 63.8648 77.2353C63.8648 75.7919 64.2049 74.4865 64.7487 73.541C65.0362 73.0414 65.3812 72.6408 65.7624 72.3664C66.1497 72.0875 66.575 71.9368 67.0196 71.9368ZM95.1649 71.9368C95.6095 71.9368 96.0348 72.0875 96.4221 72.3664C96.8033 72.6408 97.1483 73.0414 97.4358 73.541C97.9796 74.4865 98.3197 75.7919 98.3197 77.2353C98.3197 78.6787 97.9796 79.9841 97.4358 80.9295C97.1483 81.4291 96.8033 81.8297 96.4221 82.1042C96.0348 82.383 95.6095 82.5338 95.1649 82.5338C94.7202 82.5338 94.2949 82.383 93.9076 82.1042C93.5264 81.8297 93.1814 81.4291 92.894 80.9295C92.3501 79.9841 92.0101 78.6787 92.0101 77.2353C92.0101 75.7919 92.3501 74.4865 92.894 73.541C93.1814 73.0414 93.5264 72.6408 93.9076 72.3664C94.2949 72.0875 94.7202 71.9368 95.1649 71.9368ZM91.3356 59.7121L91.6959 59.7857L91.935 59.8363C95.8216 60.6711 100.749 62.3168 102.569 66.0851C102.639 66.629 102.565 66.7455 102.504 66.8217L102.483 66.847C102.433 66.912 102.393 67.0017 102.157 67.0757C102.092 67.0601 102.026 67.0436 101.959 67.0261C101.108 66.8034 100.434 66.4965 99.7823 66.1781L99.0754 65.8304C98.2553 65.4288 97.4279 65.0419 96.5511 64.7562C94.6799 64.1468 92.7552 63.7175 90.8007 63.4882C90.3771 63.4386 89.9692 63.2958 89.6473 63.0511C89.3419 62.8189 89.1085 62.4973 89.0021 62.0699C88.8642 61.5167 88.9038 61.098 89.2011 60.5989C89.4245 60.2242 89.7443 59.9644 90.1115 59.8153C90.4858 59.6632 90.912 59.6274 91.3356 59.7121Z" fill="black"/>
</svg>
