<svg width="463" height="626" viewBox="0 0 463 626" fill="none" xmlns="http://www.w3.org/2000/svg">
<path fill-rule="evenodd" clip-rule="evenodd" d="M82.3095 238.611C79.345 240.273 76.8846 241.407 74.5663 242.183L71.157 243.322L74.3634 244.947C76.5413 246.051 78.6123 247.458 80.6946 249.25L82.3017 250.633L83.0773 248.661C84.0959 246.071 84.5916 243.124 84.5505 239.902L84.5179 237.374L82.3095 238.611ZM224.715 246.978C221.94 251.983 218.591 256.911 215.352 261.676C208.203 272.193 200.811 283.068 198.535 296.073C198.27 297.689 198.156 303.383 198.156 303.383L200.274 302.52C207.35 299.639 214.858 297.496 222.118 295.424C224.924 294.623 227.825 293.795 230.669 292.933C231.827 292.623 232.979 292.261 234.093 291.911C236.797 291.061 239.351 290.259 242.036 290.122L242.853 290.08L243.262 289.372C246.962 282.967 244.187 276.861 241.011 271.156C239.102 266.997 236.648 263.09 234.274 259.31C231.813 255.393 229.268 251.342 227.409 247.103L226.188 244.32L224.715 246.978ZM88.1746 300.037C92.3804 304.443 96.2869 308.92 99.786 313.344L102.443 312.123C101.159 305.589 97.1711 300.986 89.8936 297.636L88.1746 300.037ZM228.872 398.468C228.451 398.468 228.056 398.631 227.76 398.927C227.46 399.228 227.295 399.633 227.297 400.068L228.872 400.063V398.468ZM53.8619 507.405C51.3909 503.165 51.0278 496.508 54.7311 492.9C53.4855 485.105 55.9324 476.396 61.3516 470.19L61.3641 470.209C69.4102 458.157 70.0015 453.863 64.1227 440.39C53.6164 439.989 42.7944 439.869 32.5361 437.414L32.9198 435.12C32.5401 435.019 30.6005 434.51 30.184 434.403C30.2397 434.83 30.5288 436.777 30.5218 437.167C30.0426 437.691 28.8843 438.178 28.6689 437.146C22.2156 409.557 16.4402 382.515 10.1647 354.967C3.5968 327.163 -9.61168 282.693 22.7202 267.369L22.0527 264.521C20.2673 264.521 19.5498 262.575 18.7314 259.826C15.0833 249.99 22.1768 240.346 28.8101 234.263C37.877 225.184 46.2416 215.104 54.3334 205.359C77.4152 177.29 108.822 139.834 148.967 146.197L148.832 147.851C155.112 148.64 161.669 150.301 168.028 149.145C189.738 145.383 213.357 153.893 226.709 171.366L227.2 168.109C227.246 167.802 227.356 167.518 227.842 167.518C228.478 167.495 228.814 168.016 229.05 168.496C252.095 177.608 261.642 207.265 269.006 227.593C269.946 231.029 269.681 232.046 269.599 232.248L268.262 233.045C282.151 251.528 289.783 273.76 296.331 294.84C298.495 300.459 298.721 304.353 295.107 307.752C318.938 322.076 337.638 344.4 327.065 369.851C313.266 394.615 276.727 410.327 249.282 424.551C238.383 430.458 222.532 433.603 212.503 443.276C211.833 444.266 210.872 445.231 210.289 445.152C205.635 445.84 198.707 416.759 199.76 414.43C194.847 416.187 189.381 416.094 184.242 417.011C184.702 418.023 186.21 419.393 185.082 420.519C185.159 423.934 184.633 427.626 183.882 431.108C190.049 430.119 189.909 433.356 183.976 431.643C183.814 433.151 183.403 436.997 183.245 438.454C185.017 437.676 188.542 437.129 189.776 438.347C189.272 439.971 184.904 438.442 183.221 438.923C182.237 446.224 181.916 453.403 181.225 460.684C186.476 465.687 194.678 466.87 199.364 472.281C203.334 476.4 202.762 483.312 198.104 486.626C200.957 489.972 198.674 495.528 194.508 496.436C188.833 497.761 182.901 495.929 177.306 494.39C168.005 491.325 158.263 486.549 147.528 479.788C143.281 477.142 140.117 472.984 138.614 468.077C127.723 434.497 124.812 411.68 129.953 400.228C132.887 398.011 136.157 399.379 138.866 398.168C140.157 397.591 141.321 396.815 142.259 394.063C128.129 392.675 107.53 395.254 96.2028 388.481L96.6013 387.633C95.5554 386.965 93.2572 384.171 92.3828 383.273C93.9588 402.236 95.2256 421.691 95.8525 440.588C97.9303 444.083 99.6946 447.702 101.631 451.739C102.979 453.062 105.335 455.33 103.953 456.831C103.952 456.831 115.583 484.074 119.137 497.845C122.521 497.988 123.893 503.721 123.764 507.53C123.249 514.461 114.357 515.196 106.562 515.876C101.228 516.436 95.7437 516.725 90.3408 516.725C80.579 516.733 56.1712 516.061 53.8619 507.405Z" fill="#78E185"/>
<path fill-rule="evenodd" clip-rule="evenodd" d="M69.6005 451.481C76.1205 446.351 92.0467 444.368 98.7964 448.444C99.1098 449.516 99.9383 450.176 100.775 450.247C101.602 451.15 101.93 452.514 103.034 453.132C107.219 466.962 117.628 486.826 120.464 501.051C119.964 501.212 122.496 502.274 123.222 504.807C123.877 507.091 122.745 510.866 122.219 511.067C110.44 515.561 85.5586 516.833 72.0672 514.823C55.2664 512.319 52.7524 502.548 52.7588 502.553C51.9045 498.362 51.7429 498.807 54.7649 491.535C56.0262 488.5 54.3775 483.972 58.2755 476.011C60.5938 471.276 68.35 457.971 68.35 457.971C69.2164 455.911 69.9977 453.773 69.6005 451.481ZM165.849 392.9L165.608 393.308C164.895 394.531 161.591 403.466 162.841 410.907C163.953 417.524 169.312 419.983 173.429 420.938C178.269 421.978 178.937 419.711 183.404 417.667C183.395 417.878 187.055 418.275 186.413 420.923C185.416 425.031 183.772 436.573 182.401 443.959C181.147 450.709 180.048 453.266 181.398 458.232C182.656 462.863 196.698 469.144 199.703 472.004C204.775 476.833 197.301 492.282 196.529 493.421C192.864 497.28 182.114 494.165 177.229 492.752L177.083 492.709L176.794 492.628C167.29 489.329 156.301 484.052 147.731 478.825C143.714 476.513 140.952 470.637 139.644 466.233C133.754 445.272 126.11 423.031 129.575 401.106C130.093 400.37 136.376 397.546 142.216 395.948C143.446 395.611 144.657 393.325 145.79 393.128C153.297 391.823 163.24 392.891 165.849 392.9Z" fill="white"/>
<path fill-rule="evenodd" clip-rule="evenodd" d="M13.6647 273.452C24.8856 266.22 37.3138 266.327 50.6562 272.381C60.5863 276.886 70.1442 284.091 81.2293 294.443L81.5657 294.757L81.9576 295.131C88.2959 301.193 93.7609 307.196 98.4197 313.345L98.7292 313.754C98.9319 314.01 99.0742 314.045 99.2421 313.968L99.2689 313.954L100.793 313.157L101.724 314.602C102.49 315.793 102.859 317.082 102.926 318.529L102.933 318.709C102.956 319.417 102.919 320.028 102.802 321.019L102.754 321.41L102.639 322.296C102.428 323.939 102.381 324.792 102.506 325.642L102.528 325.78L102.552 325.912L102.64 326.382L102.08 328.116C100.581 332.762 99.1213 337.351 97.699 341.891L97.2735 343.251L96.4873 345.773L96.1631 346.759L95.9949 347.277L95.9162 347.53C95.8044 347.895 95.7197 348.205 95.651 348.504L95.6129 348.675C95.2956 350.149 95.4843 350.715 96.3246 351.037C96.8768 351.248 97.4947 351.148 98.2535 350.698L98.3354 350.649L102.755 347.921L101.108 352.842C100.854 353.6 100.559 354.331 100.133 355.289L100.06 355.451L99.9292 355.741L99.3645 356.978L99.2417 357.252C98.3436 359.263 97.9592 360.386 97.8121 361.596L97.7971 361.728L97.8135 361.85C97.8678 362.226 97.9455 362.52 98.0371 362.736L98.0603 362.788L98.0841 362.837L98.1182 362.901C98.16 362.974 98.1876 363.006 98.2049 363.018L98.2142 363.023L98.2201 363.025L98.2426 363.029C98.2866 363.037 98.3482 363.039 98.4284 363.033C98.6528 363.014 98.951 362.934 99.3056 362.786C100.703 362.204 102.549 360.768 104.168 359.156L104.28 359.043L104.425 358.897L110.735 352.365L107.694 360.69C106.703 363.402 106.306 365.409 106.423 366.613C106.444 366.827 106.48 366.996 106.525 367.121C106.541 367.164 106.555 367.196 106.567 367.22L106.578 367.238L106.619 367.244C107.812 367.384 110.595 365.665 113.399 362.731L113.594 362.525L113.79 362.314L118.194 357.526L117.025 363.922C116.718 365.598 117.048 366.683 118.012 367.238L118.1 367.287L118.171 367.328C119.129 367.854 120.291 367.2 122.048 365.13L122.207 364.941L122.364 364.75L122.618 364.437L123.208 363.697L123.347 363.517C128.069 357.342 131.03 349.368 132.194 340.482L132.23 340.201L132.265 339.922L132.641 336.836L133.918 337.718L133.695 336.212L137.766 340.42C147.279 350.25 157.596 352.776 167.751 348.835C176.901 345.284 185.479 336.536 191.378 325.081L191.556 324.733L191.762 324.317C193.454 320.872 195.044 317.246 196.211 313.909L196.316 313.606C197.732 309.48 198.247 306.361 197.743 305.026L197.724 304.978L196.915 303.002L198.98 302.453L218.695 297.191C225.812 295.301 231.184 293.897 236.537 292.537L237.163 292.378L242.704 290.981L241.285 294.427C238.58 300.998 235.767 306.337 229.925 316.402L229.178 317.686L226.663 321.998L225.88 323.348C219.804 333.869 216.524 340.409 214.079 347.541L214.002 347.766L213.845 348.232C210.582 358.012 209.757 367.293 211.68 376.962L211.719 377.154L211.901 377.713C213.86 383.68 216.012 389.366 218.054 393.407L218.156 393.608L218.353 393.988L218.451 394.175C219.087 395.374 219.685 396.344 220.226 397.053L220.359 397.224C220.588 397.511 220.794 397.732 220.961 397.888L221.026 397.946L221.034 397.933C221.269 397.5 221.516 396.77 221.736 395.751L221.762 395.628L221.787 395.506L222.798 390.517L225.314 395.038L225.405 395.205C225.674 395.704 225.908 396.191 226.223 396.902L226.332 397.147L226.826 398.282L227.066 398.821C227.395 399.554 227.639 400.043 227.9 400.486L227.936 400.546L228.038 400.712L228.089 400.793L228.116 400.824C228.658 401.415 229.614 401.239 230.157 400.297L230.191 400.236L230.224 400.174C230.711 399.229 230.905 398.038 230.894 396.322L230.892 396.11C230.889 395.888 230.883 395.675 230.874 395.42L230.87 395.307L230.787 393.418L230.777 393.12L230.774 393.028L230.767 392.66L230.757 392.318C230.744 391.796 230.739 391.255 230.739 390.604L230.739 390.269L230.749 388.13C230.75 387.221 230.743 386.611 230.721 385.992L230.715 385.815L230.252 375.022L234.503 385.222C235.086 386.614 235.664 387.953 236.478 389.806L236.651 390.197L238.881 395.244L239.51 396.679L239.922 397.628L239.944 397.618L240.18 397.339C240.706 396.717 241.034 395.581 241.16 394.069L241.171 393.935L241.18 393.802L241.186 393.704L241.198 393.491L241.312 390.575L241.421 387.688L242.07 369.855L242.782 351.728L245.954 364.932C246.785 368.39 248.221 371.769 250.582 376.154L250.838 376.628L251.097 377.101L251.223 377.329L251.244 377.287C251.339 377.095 251.428 376.883 251.502 376.669L251.545 376.541L251.569 376.464L251.589 376.394L251.737 375.853L252.067 375.509C252.367 375.196 252.601 374.637 252.733 373.904L252.75 373.803L252.768 373.685L252.771 373.619C252.934 368.495 250.95 346.534 249.835 338.951L249.768 338.505L249.742 338.321L249.712 338.128L249.675 337.898C249.663 337.824 249.65 337.749 249.635 337.668L249.603 337.492L249.309 335.957C249.257 335.679 249.215 335.447 249.177 335.22L249.163 335.135L249.111 334.808C248.861 333.171 248.83 331.866 249.107 330.619C249.477 328.949 250.397 327.578 251.91 326.597L252.016 326.529L252.196 326.416L253.039 326.125L253.676 325.908C255.118 325.421 256.631 324.932 258.57 324.325L259.232 324.117L265.405 322.202L266.799 321.762L267.674 321.482C273.425 319.633 277.588 318.078 281.515 316.222C286.633 313.805 290.87 311.044 294.403 307.694L294.598 307.508L295.649 306.497L296.891 307.262C298.166 308.048 299.42 308.855 300.65 309.679L301.176 310.034L301.333 310.14L301.709 310.525L306.724 315.624L307.562 316.486C314.091 323.229 318.13 327.994 321.479 333.293L321.585 333.46L321.805 333.814C326.512 341.411 328.862 349.041 328.585 357.251L328.576 357.5L328.573 357.669C328.401 363.961 326.021 369.698 321.734 375.065C318.335 379.322 313.945 383.156 308.099 387.31L307.524 387.716L306.944 388.121C289.742 400.472 270.872 411.404 250.481 420.98C244.139 423.964 237.493 426.889 230.323 429.87L229.649 430.15L228.332 430.694L227.598 430.992L226.85 431.298L226.377 431.494C219.584 434.321 215.289 436.751 211.784 440.139L211.664 440.257L209.982 441.901L208.747 439.9C203.713 431.745 200.81 422.366 198.588 409.377L198.466 408.662L198.347 407.942L198.066 404.71C197.899 402.821 197.767 401.394 197.632 400.056L197.537 399.122L197.401 397.851L197.289 397.21L196.991 395.484L196.791 394.343L196.682 393.734L196.564 393.082C196.426 392.331 196.291 391.614 196.155 390.922L196.097 390.628C195.913 389.699 195.733 388.843 195.559 388.069L195.444 387.569L195.306 387.617C185.793 390.918 175.677 392.481 165.695 392.184L165.334 392.172L165.032 392.161L164 392.176C160.041 392.227 156.082 392.212 151.032 392.137L148.798 392.101L145.408 392.039L136.934 391.871C130.678 391.754 126.794 391.714 122.735 391.736L122.277 391.739L120.714 391.752L118.411 391.781L117.509 391.795L113.83 391.873L112.538 391.896C108.548 391.961 106.164 391.918 103.565 391.695L103.024 391.647L102.56 391.602L102.347 391.555L102.14 391.507C100.394 391.093 99.0177 390.485 96.4801 389.141L95.3277 388.527C94.4892 388.083 93.9582 387.816 93.3972 387.559L93.25 387.492L92.2411 387.038L92.1308 385.725C91.9366 383.487 91.6698 381.661 91.3537 380.278L91.2919 380.016L91.2783 379.961L91.2668 380.034C91.1002 381.102 91.0246 382.381 91.0595 383.771L91.0655 383.98L91.0725 384.173L91.1386 386.924C91.2277 390.365 91.3426 393.746 91.5233 398.303L91.6329 401.016L92.24 415.457L92.3537 418.314C92.6051 424.786 92.7601 429.94 92.8411 434.955L92.8574 436.028L92.8886 438.438L91.2075 438.636C73.4292 440.737 54.815 440.067 32.1172 437.111L31.4282 437.021L30.1227 436.849L28.952 431.583C27.6446 425.728 26.3582 420.063 24.6715 412.735L23.2174 406.431L16.8027 378.756C16.126 375.828 15.5348 373.262 14.9821 370.853L14.0075 366.592L12.7682 361.137L12.6984 360.767C12.3056 358.707 11.8041 356.415 11.1386 353.606L10.8969 352.592L10.4543 350.771L8.47295 342.779L7.78713 340.002L7.37161 338.29C5.8602 332.015 4.78879 327.046 3.93734 322.147L3.83131 321.53C2.08765 311.276 1.60955 302.598 2.651 295.056C3.89473 286.049 7.31552 278.884 13.2878 273.751L13.4695 273.597L13.5624 273.518L13.6647 273.452Z" fill="#FAA9DD"/>
<path fill-rule="evenodd" clip-rule="evenodd" d="M101.378 156.261C117.948 145.254 139.459 139.458 158.675 146.665C158.903 146.746 158.812 147.079 158.574 147.026C155.538 146.36 152.453 145.987 149.351 145.859C155.638 146.627 161.739 148.276 168.105 147.164C189.37 143.653 211.92 150.866 226.048 167.386C226.414 164.959 229.43 165.049 230.414 166.765C249.203 173.382 259.845 198.24 266.942 215.49C267.776 218.565 273.567 231.334 270.786 232.991C284.022 251.119 291.47 272.585 298.078 293.818L298.268 294.334C299.768 298.49 300.912 303.193 297.735 306.891C310.915 314.947 323.101 325.768 328.862 340.43C338.037 362.058 326.346 380.382 308.117 392.1C290.051 405.177 270.48 416.064 250.249 425.413C243.446 428.553 236.558 431.5 229.629 434.355L228.94 434.637C223.497 436.874 218.005 439.504 213.934 443.808C206.018 455.357 198.706 420.762 198.625 415.941C194.913 417.056 190.825 417.081 186.993 417.664C187.479 418.497 187.517 419.582 186.925 420.471C186.934 423.293 186.634 426.138 186.082 428.934C191.964 428.412 191.76 434.343 185.629 432.975L185.322 435.842V435.842C188.122 434.975 194.035 436.36 190.571 439.696C188.757 440.592 186.825 439.766 184.891 439.861C184.058 446.415 183.741 452.973 183.131 459.555C188.384 464.12 196.183 465.329 200.847 470.808C204.922 475.262 205.024 482.231 200.358 486.423C202.865 490.701 199.835 496.272 195.2 497.396C189.226 498.815 182.97 496.924 177.205 495.328C166.722 491.878 156.801 486.663 147.467 480.813L147.062 480.559C142.443 477.681 139.101 473.202 137.512 468.016L137.173 466.965C131.531 449.452 121.498 415.102 129.025 398.876C132.571 394.948 138.287 399.522 140.354 394.894C127.021 393.852 105.537 396.172 94.6731 388.557C95.7399 403.875 97.3221 419.184 97.259 434.548C96.9881 436.568 98.354 437.832 97.8051 439.871C99.7884 443.26 101.501 446.792 103.199 450.328L103.306 450.428C105.07 452.098 107.337 455.486 105.017 457.472C112.914 469.029 117.199 482.669 120.699 496.084C124.423 496.936 125.83 503.86 125.599 507.169C124.554 516.061 113.997 516.119 107.061 516.869C103.008 517.295 98.9435 517.56 94.8712 517.671C86.6315 517.893 78.3813 517.458 70.2093 516.386C63.5519 515.803 56.1922 514.065 52.8764 507.625C50.203 503.002 49.7858 496.065 53.4835 491.917C52.4026 483.972 54.9365 475.691 59.8878 469.427L60.0386 469.238L60.0259 469.233C59.9124 469.184 59.9225 468.996 60.3859 468.902L60.4373 468.893L60.6597 468.549C67.9349 457.288 68.8413 454.2 63.4436 441.356L58.5387 441.181C49.4495 440.849 40.2651 440.37 31.4693 438.113C30.2233 439.15 28.0314 439.03 27.5425 436.997C21.1438 409.654 15.2728 382.183 9.03419 354.8C2.55007 325.982 -11.422 282.233 22.3894 265.523C18.9359 265.524 18.1663 261.386 17.327 258.775C14.25 248.627 21.0302 239.251 28.122 232.663C53.0171 207.707 71.7472 176.266 101.378 156.261ZM53.9018 494.972C53.4339 508.407 63.616 511.629 75.0761 511.972C82.2175 512.65 89.412 512.858 96.581 512.578L99.9579 512.383C105.598 512.051 111.28 511.637 116.769 510.352C120.384 509.61 121.29 506.381 119.985 503.225C119.42 503.476 118.753 503.493 118.231 503.127C117.647 502.719 117.224 502.286 116.902 501.776C98.3315 510.028 74.9635 509.124 56.9661 499.629C54.6599 499.516 54.3604 496.766 53.9018 494.972ZM99.0472 452.447C92.2975 448.37 78.6282 446.598 72.1082 451.728C72.555 454.305 71.5104 456.69 70.5309 458.987C73.5056 458.278 99.3817 454.796 95.7269 461.148C93.6807 462.796 90.895 461.661 88.5301 461.438C82.1877 460.912 75.8013 461.079 69.4777 461.797C68.9265 463.34 68.7136 465.071 68.0281 466.526C74.4327 464.416 81.1332 463.406 87.8533 463.046L88.2267 463.026C91.1606 462.871 94.5937 462.222 96.7778 464.616C98.6392 467.157 94.508 468.907 92.3795 468.657C83.3146 468.386 74.2311 468.721 65.1744 469.111L64.7763 469.767C58.3764 480.347 56.9983 484.514 59.585 497.203C59.5702 497.19 59.5549 497.18 59.5424 497.168C59.5324 497.854 59.3119 498.473 58.8428 498.933C78.3601 505.258 96.5386 504.899 115.933 498.626C113.097 484.401 107.47 470.965 103.285 457.134C102.18 456.516 101.853 455.152 101.025 454.249C100.189 454.178 99.3606 453.518 99.0472 452.447ZM145.818 395.052C137.314 401.057 141.155 408.153 143.506 416.306C146.942 428.291 149.583 440.502 152.523 452.614C154.255 463.372 161.068 472.703 170.868 477.541C175.277 479.861 180.114 481.361 185.056 481.978C186.965 482.172 189.079 481.968 190.357 483.676C191.082 484.46 191.162 485.747 190.357 486.516C187.83 489.377 180.483 486.796 177.075 486.082C151.821 478.438 147.982 460.165 143.111 437.254C140.751 424.53 134.951 411.129 138.45 398.225C136.334 399.355 133.082 398.967 131.581 401.102C128.116 423.026 135.759 445.268 141.65 466.228C142.958 470.632 145.719 474.506 149.737 476.818C158.307 482.044 167.29 486.821 176.794 490.119L177.082 490.201C181.905 491.583 192.325 495.312 196.027 491.413C196.799 490.274 196.764 489.055 195.791 488.298L195.32 488.119C194.414 487.77 193.348 487.277 193.183 486.221L193.173 486.148L193.208 486.135C192.421 484.693 193.949 483.078 195.317 482.725C197.246 482.655 198.143 481.372 198.828 479.489C200.058 470.272 187.098 467.809 182.802 461.503C182.346 463.805 178.798 463.367 178.817 461.045C178.677 453.993 180.212 446.876 181.262 439.919C179.645 439.85 177.927 440.502 176.352 440.149C176.12 438.696 180.662 437.174 181.912 436.694C182.17 435.492 182.444 434.295 182.734 433.103C172.632 433.713 177.325 430.477 183.705 429.37C183.903 428.694 184.078 427.999 184.236 427.313L184.314 426.97C184.718 425.25 184.931 423.625 185.001 421.945C180.535 423.989 175.51 425.229 170.67 424.189C161.925 422.16 157.392 411.559 160.903 403.603C160.104 400.781 161.672 397.78 163.09 395.4C157.333 395.38 151.572 395.222 145.818 395.052ZM60.3213 469.03C60.2458 469.075 60.1748 469.126 60.106 469.182L60.0379 469.238L60.055 469.243C60.1379 469.26 60.2585 469.213 60.3313 469.038C60.316 469.053 60.316 469.045 60.3213 469.03ZM60.8531 468.853C60.7152 468.857 60.5982 468.868 60.4962 468.883L60.4368 468.893L60.4179 468.922C60.3825 468.976 60.3605 468.998 60.334 469.036C60.4797 468.918 60.6773 468.863 60.8531 468.853ZM71.2933 460.449C70.8224 460.511 70.3522 460.568 69.8788 460.627L69.786 460.88V460.88C70.2875 460.729 70.789 460.587 71.2933 460.449ZM92.1936 440.057C83.7917 440.911 75.324 440.385 66.9196 441.339C68.5676 443.612 69.7431 446.128 70.7289 448.783C77.6318 442.274 88.7055 444.265 97.0107 446.662C96.4517 445.032 95.9369 443.387 95.476 441.727C94.2333 441.927 92.8142 441.23 92.1936 440.057ZM297.12 307.688C285.635 319.375 268.278 322.588 253.423 327.748C249.816 330.003 251.579 334.473 252.039 337.868C252.899 343.441 253.582 349.041 254.078 354.658C255.913 352.538 260.72 352.261 263.411 351.4L263.769 351.319C267.358 350.497 271.088 349.263 274.75 350.063C276.227 350.383 276.327 352.424 275.154 353.15C272.181 354.994 268.544 355.047 265.137 355.45L264.265 355.555C261.25 355.913 258.21 356.24 255.181 356.113C254.8 356.173 254.416 356.027 254.175 355.77C254.553 361.642 255.309 367.598 255.053 373.48C254.913 374.524 254.577 375.661 253.834 376.435L253.81 376.524C253.389 378.01 252.023 380.662 250.449 378.699L250.153 378.168C247.842 374.003 245.651 369.648 244.534 364.997C244.162 374.403 243.861 383.804 243.485 393.207L243.473 393.433C243.377 395.029 243.065 396.949 242.026 398.177C242.118 398.907 241.463 399.332 240.878 399.071L240.8 399.107C240.239 399.358 239.337 399.59 238.994 398.906C237.021 394.296 234.919 389.759 232.994 385.136C233.095 387.509 232.98 389.886 233.056 392.26C233.094 394.97 233.598 398.155 232.304 400.661C231.199 402.857 228.447 403.431 226.97 401.52C225.787 399.695 225.116 397.44 224.039 395.505C221.005 410.479 213.323 388.468 211.912 383.932C207.577 386.464 203.006 388.602 198.278 390.312C199.579 392.279 199.264 394.953 199.673 397.213C200.041 400.584 200.332 403.956 200.623 407.335L200.73 407.981C202.501 418.546 205.08 429.345 210.756 438.542C215.562 433.842 221.867 431.07 228.034 428.581C235.459 425.523 242.824 422.326 250.088 418.908C269.724 409.687 288.631 398.877 306.255 386.223L306.854 385.804C316.649 378.921 326.855 369.895 327.106 357.052C327.951 335.997 310.322 321.634 297.12 307.688ZM80.6887 295.753C63.9222 280.044 38.2515 259.732 15.0945 274.657C-6.53601 292.939 10.6019 336.776 15.0202 360.384C20.6385 385.2 26.5765 409.947 32.0841 434.785C51.7241 437.374 71.6594 438.73 91.3964 436.398C91.1732 418.885 89.9899 401.394 89.6032 383.874C89.2436 374.848 89.3685 365.786 88.0139 356.846C86.8644 349.577 88.3406 340.795 84.2871 334.445C82.7868 332.133 80.3467 330.109 79.8013 327.322C79.7888 327.191 79.959 327.149 80.0418 327.221C81.2281 328.263 82.181 329.505 83.4395 330.504L84.3651 331.22C85.8704 332.39 87.3698 333.64 88.302 335.304C88.3978 334.595 86.6011 328.272 87.6771 329.027L87.8799 329.581C89.3269 333.556 90.6313 337.577 91.0027 341.83C92.423 356.324 93.2166 370.891 94.4328 385.407C97.3662 386.727 100.061 388.669 103.265 389.37C108.511 389.889 113.765 389.596 119.021 389.526L119.514 389.521C134.849 389.292 150.136 390.152 165.46 389.909C181.124 390.516 197.135 386.418 210.504 378.185C203.18 345.146 228.328 321.582 239.956 293.34C226.561 296.714 213.232 300.339 199.874 303.894C201.677 308.296 195.847 320.769 193.653 325.19C181.914 348.306 158.173 363.413 136.824 341.351C136.834 341.419 136.841 341.486 136.849 341.557C136.132 340.903 135.34 340.328 134.542 339.776C133.469 348.567 130.569 357.427 125.096 364.486L124.499 365.234C122.791 367.36 120.319 370.156 117.586 368.55C115.573 367.462 115.194 365.346 115.585 363.211C109.008 370.36 101.843 371.974 106.337 359.673L106.188 359.827C103.672 362.407 96.9957 368.109 96.316 361.368C96.6124 358.012 98.6822 355.017 99.7341 351.873C98.6105 352.567 97.3466 352.91 96.0602 352.416C92.6101 351.094 94.3854 347.153 95.155 344.672C97.1037 338.399 99.0919 332.137 101.114 325.887C100.413 322.171 102.632 318.474 100.552 315.245C99.6614 315.71 98.4625 315.613 97.6027 314.466C92.5574 307.755 86.7674 301.538 80.6887 295.753ZM32.3175 435.925C32.3228 435.963 32.3228 435.995 32.3251 436.033C32.5184 436.046 32.709 436.063 32.9018 436.08C32.7052 436.033 32.5111 435.976 32.3175 435.925ZM197.945 411.799C194.851 379.973 202.881 394.961 170.267 395.323C170.413 396.12 169.364 396.028 169.735 395.806C169.263 394.047 166.585 399.201 166.212 399.87C165.507 401.362 165.186 403.22 164.938 404.852C163.19 413.996 169.704 422.006 179.201 418.119C177.979 418.017 176.605 418.458 175.59 417.678C175.595 417.676 175.598 417.671 175.603 417.666C174.694 416.04 179.677 415.97 180.668 415.535C184.53 414.729 188.401 413.98 192.241 413.076C194.112 412.635 196.027 411.944 197.945 411.799ZM229.301 399.502C229.023 399.339 229.165 399.872 229.258 399.602C229.271 399.567 229.288 399.534 229.301 399.502ZM264.419 229.565C250.46 230.561 241.423 237.447 231.517 246.277C230.777 246.915 230.027 247.541 229.26 248.147C233.589 255.728 238.255 263.108 242.766 270.583L243.611 271.989C244.927 274.182 246.211 276.415 246.994 278.857C249.662 287.288 240.345 302.129 236.959 310.407C220.758 338.965 205.539 358.792 220.28 392.616C221.072 390.481 219.324 383.03 221.938 382.74L221.885 382.21C221.05 373.612 221.012 363.257 223.62 355.664C222.177 370.355 223.741 385.752 229.315 399.467C230.774 386.465 228.841 371.94 229.29 358.584C229.273 356.531 232.382 356.553 232.47 358.584L232.576 362.032C232.94 373.719 233.57 385.957 240.374 395.843C241.029 380.793 238.28 364.94 243.561 350.511C243.992 349.472 245.547 349.552 245.592 350.787C245.689 355.698 247.769 372.324 251.357 375.208C252.343 372.201 252.242 368.91 252.084 365.76C251.595 354.345 249.947 343.207 247.924 331.952C247.559 329.728 248.214 326.99 250.519 326.132C252.232 324.505 254.597 323.35 256.553 322.424C268.983 316.29 286.082 317.471 294.49 304.838L294.898 304.223C295.878 302.742 296.797 301.279 297.211 299.502C296.078 295.275 294.449 291.155 293.066 287.005C291.829 283.338 290.56 279.683 289.229 276.05L288.783 274.84C282.84 258.636 275.273 243.081 264.419 229.565ZM168.171 395.375C167.853 395.479 167.601 395.797 167.33 396.034L167.272 396.083L167.437 395.951C167.612 395.81 167.771 395.679 168.014 395.493L168.171 395.375ZM94.555 387.027L94.6303 388.008V388.008C95.1117 388.106 95.5834 388.229 96.0548 388.349C95.5079 387.953 94.9991 387.515 94.555 387.027ZM165.67 364.854C165.615 364.661 165.891 364.549 165.994 364.718C170.051 371.847 178.037 374.685 185.726 375.814C187.035 376.12 186.874 377.925 185.726 378.306C181.428 379.728 176.465 377.812 172.947 375.261C169.341 372.649 166.881 369.121 165.67 364.854ZM243.012 360.785C242.251 366.272 242.32 371.868 242.255 377.406C242.506 371.868 242.714 366.324 243.012 360.785ZM131.01 370.448C131.808 370.723 132.633 370.904 133.445 370.974C132.583 371.385 131.597 371.179 131.01 370.448ZM68.4581 193.017C56.2637 206.806 45.5881 221.9 32.4722 234.859C24.7869 241.795 17.5159 251.275 23.5095 261.714C24.7736 262.212 24.9958 264.072 23.9057 264.947C24.166 264.913 25.8388 264.104 25.463 264.766C22.103 266.199 19.1488 268.275 16.6036 270.786C32.4616 259.136 53.4888 268.463 67.3196 278.904C74.1455 283.884 80.492 289.373 86.435 295.28C88.5617 295.661 90.7606 296.795 92.5332 297.682C104.759 303.547 106.675 311.472 105.666 324.141C101.997 331.126 100.261 339.114 97.7043 346.602C95.0749 352.424 100.248 348.5 100.989 345.961C102.79 343.724 103.658 340.75 104.762 338.149L104.841 337.964C105.154 337.22 105.826 336.666 106.692 336.914C107.386 337.113 108.03 337.971 107.761 338.714L107.207 340.139C104.525 347.023 101.753 353.943 99.6176 360.998C106.834 356.681 110.408 348.511 114.197 341.296C115.237 339.378 118.038 341.068 117.101 342.991C116.23 344.767 115.343 346.537 114.402 348.277C111.945 353.507 110.163 359.025 108.688 364.606C116.799 359.774 119.627 349.931 121.96 341.624C122.104 339.255 125.526 339.721 125.172 342.047C124.305 346.665 122.981 351.215 120.91 355.444L120.362 358.642C119.997 360.774 119.636 362.907 119.292 365.042C119.488 364.946 119.698 364.934 119.901 364.984C127.088 357.757 129.965 347.786 132.474 338.202C131.281 334.148 132.741 330.003 132.575 325.824C133.209 320.474 131.481 315.488 129.088 310.711C127.654 295.932 113.401 289.522 103.464 280.835C91.2927 268.824 84.8933 250.432 67.7861 244.479C66.0074 244.592 64.2927 244.211 62.6279 243.638C62.5552 243.618 62.5427 243.492 62.6279 243.48C64.3213 243.204 66.0137 242.772 67.7111 242.463C68.1685 240.973 69.9972 240.791 71.3724 241.457C86.1647 234.983 98.4253 223.598 110.18 212.766C98.7024 202.163 83.8424 195.58 68.4581 193.017ZM136.525 343.32C136.77 343.593 136.986 343.888 137.147 344.211C137.191 344.294 137.185 344.393 137.199 344.484C136.988 344.089 136.765 343.698 136.525 343.32ZM89.6008 298.501C93.6872 302.782 97.6108 307.244 101.304 311.912C99.9792 305.175 95.6411 301.281 89.6008 298.501ZM226.367 247.206C217.494 263.212 203.601 277.272 200.353 295.831C200.092 297.419 200.074 299.027 200.042 300.629C209.947 296.596 220.374 294.083 230.592 290.988C234.465 289.955 238.226 288.329 242.295 288.121C245.648 282.315 242.955 276.631 240.003 271.335C236.157 262.927 230.073 255.656 226.367 247.206ZM83.3813 239.421C80.8158 240.859 78.17 242.174 75.3796 243.107C77.7818 244.324 79.9782 245.861 82.0121 247.612C83.034 245.013 83.4166 242.198 83.3813 239.421ZM148.612 147.154C147.28 158.879 147.344 170.979 150.462 182.423C155.112 200.258 172.328 216.931 191.807 213.435C211.461 209.333 221.121 189.006 225.173 171.132C214.823 158.018 198.621 149.815 181.922 149.154C171.065 148.711 158.79 152.207 148.612 147.154Z" fill="black"/>
<path fill-rule="evenodd" clip-rule="evenodd" d="M197.768 59.7722C208.971 59.7722 222.413 65.207 223.556 65.3157L223.587 65.3174C224.188 65.3174 226.538 67.1086 230.635 70.6909L226.197 79.3532L226.556 79.6964C228.275 81.3454 229.742 82.8484 230.9 84.0332C240.357 93.7072 242.057 131.69 239.828 144.936C237.599 158.182 233.472 171.144 214.254 171.144C195.037 171.144 173.657 159.581 170.364 155.98C168.168 153.579 165.702 152.429 162.965 152.53C162.853 152.388 162.741 152.246 162.631 152.105L162.228 152.048C158.44 151.499 155.726 150.76 154.086 149.831C150.882 148.018 147.361 138.483 147.361 136.382C147.361 134.303 142.103 119.176 141.998 117.575L141.996 117.53C141.996 116.192 135.127 110.04 135.127 108.087C135.127 106.133 133.743 106.252 135.127 99.3672L135.529 97.3448C137.003 90.0149 139.887 77.8777 150.882 72.6038C162.965 66.8082 186.452 59.7722 197.768 59.7722Z" fill="#78E185"/>
<path fill-rule="evenodd" clip-rule="evenodd" d="M229.202 73.5581C225.829 73.6596 221.941 73.8113 217.855 74.0381C211.691 74.3804 205.086 74.8935 199.126 75.6616C193.151 76.4318 187.881 77.4519 184.357 78.7902C180.986 80.0706 178.158 83.1827 175.815 87.2877C173.481 91.3774 171.685 96.3508 170.329 101.189C168.975 106.021 168.067 110.688 167.499 114.15C167.214 115.88 167.015 117.307 166.887 118.3C166.823 118.796 166.776 119.184 166.746 119.447C166.731 119.579 166.72 119.679 166.713 119.746L166.705 119.822L166.703 119.84L166.702 119.845L166.702 119.846C166.702 119.846 166.702 119.846 165.956 119.77L166.702 119.846L166.659 120.266L166.277 120.447L166.277 120.447L166.277 120.447L166.275 120.448L166.265 120.453L166.225 120.473L166.141 120.513L166.062 120.552C165.918 120.624 165.705 120.73 165.433 120.871C164.89 121.151 164.111 121.567 163.175 122.104C161.303 123.178 158.81 124.734 156.322 126.659C155.079 127.62 154.335 128.323 153.907 128.828C153.704 129.066 153.59 129.24 153.526 129.359L154.077 129.387L154.058 130.118L154.058 130.118L154.058 130.119L154.058 130.123L154.057 130.14L154.056 130.208C154.055 130.268 154.053 130.358 154.052 130.474C154.049 130.705 154.046 131.041 154.048 131.454C154.052 132.281 154.074 133.418 154.143 134.655C154.212 135.893 154.329 137.223 154.522 138.44C154.717 139.67 154.982 140.732 155.325 141.466C155.603 142.059 156.279 142.621 157.31 143.119C158.32 143.605 159.555 143.975 160.777 144.25C161.993 144.523 163.167 144.697 164.038 144.802C164.473 144.854 164.831 144.889 165.079 144.911C165.203 144.922 165.3 144.93 165.365 144.935L165.437 144.94L165.455 144.941L165.459 144.941L165.46 144.941H165.46L165.981 144.975L166.131 145.476L167.691 150.703L167.732 150.841L167.719 150.984L167.477 153.704C167.005 153.439 166.522 153.222 166.029 153.052L166.212 150.994L164.84 146.396C164.587 146.372 164.253 146.338 163.859 146.291C162.955 146.182 161.728 146.001 160.448 145.713C159.172 145.426 157.813 145.027 156.659 144.47C155.526 143.924 154.466 143.168 153.967 142.102C153.533 141.176 153.242 139.948 153.04 138.675C152.836 137.39 152.716 136.006 152.645 134.738C152.574 133.469 152.552 132.306 152.548 131.461C152.547 131.131 152.548 130.848 152.55 130.627C152.255 130.447 151.934 130.102 151.943 129.534C151.951 129.002 152.261 128.449 152.763 127.857C153.287 127.24 154.123 126.463 155.404 125.472C157.962 123.493 160.516 121.9 162.429 120.803C163.386 120.254 164.184 119.828 164.744 119.538C164.947 119.433 165.119 119.346 165.256 119.278L165.256 119.276C165.287 119.007 165.334 118.612 165.399 118.108C165.529 117.1 165.731 115.656 166.018 113.907C166.593 110.41 167.511 105.686 168.885 100.784C170.257 95.8876 172.092 90.7836 174.512 86.5441C176.924 82.3197 179.974 78.8503 183.825 77.388C187.523 75.9835 192.94 74.9466 198.934 74.174C204.944 73.3994 211.589 72.8838 217.772 72.5404C222.21 72.294 226.415 72.136 229.983 72.0347L229.202 73.5581Z" fill="#9DDADB"/>
<path fill-rule="evenodd" clip-rule="evenodd" d="M149.017 72.3313C155.043 65.9306 189.255 56.0303 206.564 58.1289L207.083 58.1962C208.465 58.3715 209.826 58.6369 211.169 58.9975C215.512 60.0124 219.997 61.5491 223.585 64.1159C226.581 66.2158 236.03 69.645 233.245 75.1383C234.278 77.0962 234.663 79.515 233.966 81.4434C233.878 82.1094 233.672 82.7229 233.41 83.3589C235.616 86.6169 237.363 90.3012 238.777 93.8056C241.248 102.625 242.786 111.803 243.011 120.801C243.76 137.897 241.887 158.317 227.008 169.372C218.019 176.376 203.939 176.612 193.838 167.926C193.265 167.248 190.569 165.416 191.469 165.094C191.737 165.377 192.012 165.653 192.292 165.923C192.279 165.893 192.277 165.863 192.282 165.831L192.019 165.592C191.522 165.132 190.879 164.466 191.612 164.596C191.644 164.634 191.679 164.666 191.714 164.704C191.869 164.797 191.986 164.878 192.077 164.949L192.124 164.986L192.11 164.971C191.688 164.521 191.435 164.062 192.066 164.355L192.149 164.396C192.43 164.691 192.715 164.974 193.005 165.25C193 165.217 193.005 165.185 193.023 165.15L192.752 164.888C192.488 164.629 192.528 164.628 192.658 164.418C192.096 163.631 193.144 164.099 193.218 164.406C193.874 164.251 194.449 165.483 194.872 165.633C213.389 179.878 240.26 167.238 239.825 127.543L239.818 126.767C239.691 114.074 238.624 101.029 233.377 89.5388C232.867 88.432 232.296 87.3553 231.668 86.3136C231.236 85.5324 230.773 84.7712 230.275 84.03C228.881 83.9173 227.504 83.6619 226.148 83.2663C225.683 83.1486 225.222 83.0184 224.762 82.8656C218.036 83.2327 211.46 83.6321 204.715 84.0107L202.608 84.142C196.894 84.5096 190.985 85.0983 186.374 88.6348C181.85 91.8545 181.829 98.2034 177.957 101.738C172.434 105.489 172.394 108.871 171.33 114.398C171.409 118.565 174.296 124.619 168.998 126.373C169.892 127.648 168.646 127.035 168.548 126.588C168.538 126.59 168.528 126.593 168.52 126.593C169.317 128.075 168.146 127.142 168.042 126.666C167.98 126.648 167.917 126.603 167.855 126.54C168.657 127.838 167.36 126.93 167.437 126.693C165.886 124.308 162.695 123.938 160.445 124.57C160.418 124.655 160.318 124.662 160.255 124.617C150.69 126.692 153.158 146.507 162.96 144.592C163.38 144.506 163.37 144.708 163.453 144.727C163.227 144.132 163.865 144.374 163.858 144.499L163.897 144.497C163.928 144.494 163.915 144.491 163.938 144.499C163.719 143.282 164.952 145.045 164.854 145.118C164.892 145.095 164.935 145.083 164.972 145.077L164.93 144.962C164.725 144.417 164.743 144.643 164.744 144.331C164.591 143.945 164.579 144.114 164.615 143.863C165.155 143.444 165.315 144.714 165.495 144.807C165.186 144.376 165.432 144.025 165.723 144.258C167.931 148.905 170.782 153.272 174.468 156.711C174.871 157.029 175.279 157.342 175.702 157.638C177.269 159.004 179.674 159.883 181.142 161.093C181.142 161.113 181.132 161.138 181.117 161.163L181.151 161.194V161.194L181.185 161.226L181.695 161.471C181.845 161.599 181.98 161.742 182.1 161.899C182.228 162.047 182.34 162.21 182.436 162.383C182.483 162.593 182.378 162.681 182.178 162.59C182.09 162.56 182.003 162.525 181.915 162.493C181.92 162.5 181.922 162.505 181.928 162.51C181.956 162.554 182.151 163.005 181.927 162.931L181.9 162.921C181.777 162.876 181.655 162.826 181.535 162.778C181.677 162.956 181.807 163.149 181.922 163.312C182.045 163.439 182.12 163.59 182.15 163.76C182.145 163.855 182.093 163.895 181.998 163.883C181.853 163.835 181.71 163.785 181.567 163.732L181.608 163.81C181.709 164.009 181.852 164.342 181.597 164.231C181.379 164.163 181.169 164.085 180.959 164C180.942 164.035 180.907 164.048 180.837 164.015C180.169 163.777 179.523 163.487 178.905 163.144C178.362 162.748 177.814 162.36 177.268 161.967C176.755 161.659 176.26 161.316 175.787 160.93C172.623 158.885 169.852 156.287 167.655 153.393C163.979 156.579 156.63 153.536 152.084 151.042C148.063 148.813 146.483 144.693 146.074 140.25C145.224 134.269 140.34 132.222 140.68 119.099C140.672 119.101 140.665 119.101 140.655 119.101C140.477 119.048 140.304 118.978 140.142 118.888C139.974 118.808 139.817 118.713 139.669 118.598L139.486 118.345V118.345C139.391 118.292 139.306 118.237 139.241 118.182L139.207 118.226C139.1 118.355 139.172 118.16 139.178 118.122L138.861 117.69C138.109 116.662 137.283 115.509 136.611 114.586L136.59 114.624C136.574 114.652 136.566 114.673 136.574 114.681C134.973 112.381 133.468 109.602 133.05 106.912C132.557 104.839 132.75 102.704 133.18 100.784C135.027 94.0623 141.075 78.851 149.017 72.3313ZM192.444 165.293L192.344 165.204L192.432 165.314C192.478 165.371 192.525 165.423 192.602 165.475C192.597 165.458 192.597 165.44 192.6 165.42C192.549 165.381 192.496 165.338 192.444 165.293ZM206.487 61.5064C194.749 60.4966 183.204 63.0842 172.003 66.2165L171.231 66.4387C164.862 68.2572 158.127 69.8936 152.745 73.7861C145.226 79.5495 141.342 88.7182 137.954 97.1834C134.995 103.473 136.508 110.565 140.967 114.957C141.431 110.593 142.222 106.356 143.458 102.154C143.716 101.497 143.52 101.282 144.076 101.196C144.916 112.521 140.78 120.889 148.965 134.311C152.517 140.644 148.405 145.278 158.435 148.61L158.706 148.714C160.796 149.503 163.077 150.126 165.124 149.685L164.94 149.386C164.753 149.079 164.697 148.93 164.969 148.798C164.961 148.783 164.951 148.768 164.941 148.751C164.721 148.335 164.508 147.914 164.306 147.489C164.223 147.516 164.141 147.536 164.055 147.559C164.111 147.662 164.118 147.764 163.963 147.799C163.412 147.989 162.845 148.064 162.266 148.029L162.141 148.02C161.486 147.98 161.074 147.86 160.705 147.749C160.582 147.729 160.46 147.709 160.339 147.684C159.152 147.421 157.895 146.751 157.082 146.087C147.809 140.816 148.767 122.875 160.197 121.179C160.431 109.883 165.801 90.8258 174.711 80.0618C182.766 70.1608 204.754 65.8694 220.053 67.3826C220.275 67.4564 220.498 67.5311 220.721 67.6064C223.082 67.8163 225.331 68.8685 227.693 69.3572C225.997 68.0855 224.073 67.2384 222.092 66.5185C218.144 64.1018 213.617 62.7943 209.245 61.872C208.339 61.6492 207.42 61.5265 206.487 61.5064ZM159.675 130.254C160.29 129.92 160.219 130.242 160.361 130.149C164.781 129.788 169.548 133.661 172.019 136.889C171.824 137.092 171.296 136.491 171.203 136.396C171.191 136.409 171.176 136.419 171.161 136.424L171.229 136.521C172.231 137.959 170.246 136.267 170.06 135.918C170.027 135.935 169.995 135.945 169.957 135.938C170.114 136.092 170.595 136.495 170.678 136.782L170.805 136.888C172.007 137.918 171.907 138.692 170.543 137.23C170.575 137.297 170.588 137.36 170.565 137.41L170.612 137.441C171.283 137.911 171.835 139.218 170.433 137.876C170.578 138.856 169.043 136.961 168.994 136.974C166.337 134.887 162.425 132.858 159.092 132.585L158.977 132.572C158.366 132.493 158.077 132.312 158.291 131.911C157.538 131.732 157.715 131.361 158.071 131.373C157.54 131.023 158.018 130.689 158.326 130.82C158.114 130.232 158.964 130.624 159.042 130.542C159.483 129.861 159.602 130.429 159.675 130.254ZM150.409 93.8582C152.532 93.08 158.804 95.4097 158.302 98.4951C158.003 99.2035 157.019 99.6094 156.327 99.2095L155.424 98.6026C153.853 97.5494 152.435 96.6259 150.748 95.7074C149.83 95.2514 149.434 94.2834 150.409 93.8582ZM162.488 89.273L161.668 88.7391C157.243 85.841 150.988 81.4498 162.082 85.993C163.346 86.5357 165.026 86.8567 165.716 88.0616C166.8 90.2824 163.948 90.4316 162.488 89.273ZM162.986 76.27C162.631 74.9216 167.049 76.5039 168.336 76.921L168.532 76.9951C169.783 77.4616 171.217 77.8943 171.965 78.9748C172.842 80.4677 171.067 80.7769 169.968 80.1026C167.714 78.6287 165.243 77.5167 162.986 76.27ZM174.221 69.9887C171.734 67.271 178.39 69.8744 179.387 70.5971L179.415 70.6184C180.159 71.1425 180.008 72.2713 179.31 72.6029C177.321 72.6407 175.858 70.982 174.221 69.9887ZM185.538 67.0112C181.584 64.168 186.792 65.5204 188.601 66.6346C189.834 67.7226 188.564 69.5593 185.538 67.0112Z" fill="black"/>
<path fill-rule="evenodd" clip-rule="evenodd" d="M208.015 140.798C209.418 138.494 212.408 144.138 212.726 145.109C213.007 145.969 213.193 146.849 213.287 147.74C214.375 147.984 215.504 147.984 216.618 147.771C218.275 147.454 219.287 146.564 220.726 145.801C221.721 145.273 222.974 145.892 223.491 146.767C224.099 147.797 223.711 148.866 222.911 149.633C221.395 151.089 218.41 151.423 216.43 151.037C215.296 150.815 214.256 150.391 213.338 149.773C213.332 149.888 213.328 150.004 213.319 150.119L213.301 150.318C213.149 151.933 212.705 153.963 211.449 155.014C209.389 156.737 206.847 153.423 208.848 151.701L208.91 151.65C210.154 150.646 210.426 147.953 210.359 146.47C210.315 145.501 210.138 144.521 209.832 143.599L209.769 143.415C209.677 143.155 208.672 140.684 208.309 140.999L208.292 141.016C208.142 141.195 207.9 140.987 208.015 140.798ZM219.216 127.796C221.109 128.945 223.994 131.625 221.957 134.475C219.559 136.987 216.107 134.107 214.406 132.804C212.828 131.794 211.056 134.391 212.52 135.57C224.813 144.658 229.802 128.097 220.173 126.445C219.113 126.263 218.719 127.44 219.216 127.796ZM198.996 117.172C200.846 116.844 202.742 117.304 204.273 118.385L204.389 118.469C205.865 119.546 207.515 121.438 206.669 123.295C206.329 124.041 205.311 124.158 204.666 123.82C203.591 123.257 203.396 121.872 202.437 121.105C201.65 120.477 200.591 120.096 199.578 120.188C197.198 120.404 195.734 122.748 194.995 124.768C194.9 125.026 194.52 125.126 194.372 124.849C192.629 121.596 195.714 117.754 198.996 117.172ZM228.638 115.945C232.183 115.653 236.332 119.323 235.399 123.059C234.951 124.852 232.288 124.801 231.814 123.059C231.554 122.101 231.58 121.253 230.889 120.457C230.319 119.8 229.509 119.419 228.638 119.477C227.678 119.542 226.792 120.021 226.12 120.694C225.512 121.302 225.149 122.192 224.519 122.73C224.364 122.862 224.157 122.871 224.004 122.73C222.921 121.733 223.571 119.656 224.258 118.615C225.241 117.125 226.841 116.093 228.638 115.945ZM192.245 110.545C194.519 108.535 198.651 106.594 201.718 107.583C203.481 108.152 204.249 110.989 202.281 111.888C200.002 112.929 197.374 112.505 195.055 113.584C194.08 114.038 193.164 114.605 192.486 115.436C191.951 116.091 191.408 116.953 190.635 117.33C190.432 117.43 190.157 117.432 189.994 117.248C188.3 115.334 190.766 111.853 192.245 110.545ZM224.729 107.483C226.135 107.089 227.694 107.097 229.122 107.345C230.549 107.592 231.998 108.183 233.163 109.045L233.299 109.145C234.571 110.103 236.089 111.495 236.008 113.191C235.94 114.607 234.448 115.565 233.16 114.823C232.11 114.218 231.616 113.005 230.727 112.198C229.994 111.532 229.132 111.006 228.213 110.638C227.192 110.229 226.169 110.038 225.073 110.019C224.229 110.005 223.38 110.282 222.552 110.37C222.621 110.51 221.966 110.445 221.591 110.321C221.313 110.203 221.312 109.852 221.408 109.624C221.886 108.497 223.624 107.793 224.729 107.483Z" fill="black"/>
</svg>
